<svg xmlns="http://www.w3.org/2000/svg" xmlns:xlink="http://www.w3.org/1999/xlink" width="46" height="42" version="1.1" viewBox="0 0 46 42"><title>Sketch</title><desc>Created with Sketch.</desc><defs><polygon id="path-1" points="10.046 1.372 23.023 0 35.999 1.372 46.046 14.858 23.023 41.668 0 14.858"/><polygon id="path-3" points="9.325 .778 23.023 27.588 0 .778"/><polygon id="path-5" points="14.96 .778 1.263 27.588 24.286 .778"/><polygon id="path-7" points=".365 .778 27.76 .778 14.063 27.588"/><polygon id="path-9" points="14.063 0 1.086 1.372 .365 14.858"/><polygon id="path-11" points="1.263 0 14.239 1.372 14.96 14.858"/><polygon id="path-13" points="10.206 13.578 .159 .092 .88 13.578"/><polygon id="path-15" points="0 13.578 10.046 .092 9.325 13.578"/><polygon id="path-17" points="14.063 0 .365 14.858 27.76 14.858"/></defs><g id="designs-page" fill="none" fill-rule="evenodd" stroke="none" stroke-width="1"><g id="Sketch" transform="translate(-1.000000, -1.000000)"><g id="sketch-symbol" transform="translate(0.960000, 1.280000)"><g id="Fill-4-Clipped"><mask id="mask-2" fill="#fff"><use xlink:href="#path-1"/></mask><polygon id="Fill-4" fill="#FDB300" fill-rule="nonzero" points="-.586 42.253 46.631 42.253 46.631 -.586 -.586 -.586" mask="url(#mask-2)"/></g><g id="Fill-7-Clipped" transform="translate(0.000000, 14.080000)"><mask id="mask-4" fill="#fff"><use xlink:href="#path-3"/></mask><polygon id="Fill-7" fill="#EA6C00" fill-rule="nonzero" points="-.586 28.173 23.608 28.173 23.608 .193 -.586 .193" mask="url(#mask-4)"/></g><g id="Fill-10-Clipped" transform="translate(21.760000, 14.080000)"><mask id="mask-6" fill="#fff"><use xlink:href="#path-5"/></mask><polygon id="Fill-10" fill="#EA6C00" fill-rule="nonzero" points=".677 28.173 24.871 28.173 24.871 .193 .677 .193" mask="url(#mask-6)"/></g><g id="Fill-13-Clipped" transform="translate(8.960000, 14.080000)"><mask id="mask-8" fill="#fff"><use xlink:href="#path-7"/></mask><polygon id="Fill-13" fill="#FDAD00" fill-rule="nonzero" points="-.22 28.173 28.346 28.173 28.346 .193 -.22 .193" mask="url(#mask-8)"/></g><g id="Fill-16-Clipped" transform="translate(8.960000, 0.000000)"><mask id="mask-10" fill="#fff"><use xlink:href="#path-9"/></mask><polygon id="Fill-16" fill="#FDD231" fill-rule="nonzero" points="-.22 15.444 14.648 15.444 14.648 -.586 -.22 -.586" mask="url(#mask-10)"/></g><g id="Fill-19-Clipped" transform="translate(21.760000, 0.000000)"><mask id="mask-12" fill="#fff"><use xlink:href="#path-11"/></mask><polygon id="Fill-19" fill="#FDD231" fill-rule="nonzero" points=".677 15.444 15.546 15.444 15.546 -.586 .677 -.586" mask="url(#mask-12)"/></g><g id="Fill-22-Clipped" transform="translate(35.840000, 1.280000)"><mask id="mask-14" fill="#fff"><use xlink:href="#path-13"/></mask><polygon id="Fill-22" fill="#FDAD00" fill-rule="nonzero" points="-.426 14.164 10.791 14.164 10.791 -.494 -.426 -.494" mask="url(#mask-14)"/></g><g id="Fill-25-Clipped" transform="translate(0.000000, 1.280000)"><mask id="mask-16" fill="#fff"><use xlink:href="#path-15"/></mask><polygon id="Fill-25" fill="#FDAD00" fill-rule="nonzero" points="-.586 14.164 10.632 14.164 10.632 -.494 -.586 -.494" mask="url(#mask-16)"/></g><g id="Fill-28-Clipped" transform="translate(8.960000, 0.000000)"><mask id="mask-18" fill="#fff"><use xlink:href="#path-17"/></mask><polygon id="Fill-28" fill="#FEEEB7" fill-rule="nonzero" points="-.22 15.444 28.346 15.444 28.346 -.586 -.22 -.586" mask="url(#mask-18)"/></g></g></g></g></svg>